<svg width="30" height="30" viewBox="0 0 30 30" fill="none" xmlns="http://www.w3.org/2000/svg">
<path d="M8.75 23.75C7.79167 23.75 6.97917 23.4167 6.3125 22.75C5.64583 22.0833 5.3125 21.2708 5.3125 20.3125H3.75V8.125C3.75 7.4375 3.98958 6.85417 4.46875 6.375C4.94792 5.89583 5.53125 5.65625 6.21875 5.65625H19.375V10H22.5L26.25 15V20.3125H24.375C24.375 21.2708 24.0417 22.0833 23.375 22.75C22.7083 23.4167 21.8958 23.75 20.9375 23.75C19.9792 23.75 19.1667 23.4167 18.5 22.75C17.8333 22.0833 17.5 21.2708 17.5 20.3125H12.1875C12.1875 21.2708 11.8542 22.0833 11.1875 22.75C10.5208 23.4167 9.70833 23.75 8.75 23.75ZM8.75 21.875C9.1875 21.875 9.55729 21.7240 9.85937 21.4219C10.1615 21.1198 10.3125 20.75 10.3125 20.3125C10.3125 19.875 10.1615 19.5052 9.85937 19.2031C9.55729 18.901 9.1875 18.75 8.75 18.75C8.3125 18.75 7.94271 18.901 7.64062 19.2031C7.33854 19.5052 7.1875 19.875 7.1875 20.3125C7.1875 20.75 7.33854 21.1198 7.64062 21.4219C7.94271 21.7240 8.3125 21.875 8.75 21.875ZM20.9375 21.875C21.375 21.875 21.7448 21.7240 22.0469 21.4219C22.349 21.1198 22.5 20.75 22.5 20.3125C22.5 19.875 22.349 19.5052 22.0469 19.2031C21.7448 18.901 21.375 18.75 20.9375 18.75C20.5 18.75 20.1302 18.901 19.8281 19.2031C19.526 19.5052 19.375 19.875 19.375 20.3125C19.375 20.75 19.526 21.1198 19.8281 21.4219C20.1302 21.7240 20.5 21.875 20.9375 21.875ZM19.375 15.9375H24.0625L21.5625 12.5H19.375V15.9375Z" fill="#B3B3B3"/>
</svg>
